<svg width="673" height="161" viewBox="0 0 673 161" fill="none" xmlns="http://www.w3.org/2000/svg">
    <path d="M373.711 22.7578L382.113 28.2476V112.99L373.711 123.57V22.7578Z" fill="#283D77" />
    <defs>
        <linearGradient id="paint0_linear_65_288" x1="371.737" y1="121.054" x2="90.5125"
            y2="47.8509" gradientUnits="userSpaceOnUse">
            <stop offset="0.2011" stop-color="#586EBC" />
            <stop offset="1" stop-color="#586EBC" stop-opacity="0" />
        </linearGradient>
    </defs>
    <path d="M373.711 22.7578H0V123.57H373.711V22.7578Z" fill="url(#paint0_linear_65_288)" />

    <path
        d="M518.354 111.692C518.354 111.692 562.668 137.444 567.269 136.246C571.97 135.248 611.682 120.176 611.682 120.176L613.483 86.5387L597.778 23.3564L566.469 39.4265L577.072 68.5722L558.166 46.4135L539.361 49.5077L552.665 85.9398C538.36 79.951 518.755 83.6441 518.755 83.6441L518.354 111.692Z"
        fill="#283D77" />
    <path
        d="M592.576 147.026L534.659 140.139C534.659 140.139 494.847 80.45 511.452 76.7569C527.957 73.0638 551.064 93.9249 551.064 93.9249C564.368 94.7234 587.475 111.492 587.475 111.492C595.677 101.611 660.897 65.2783 660.897 65.2783L625.986 116.982L592.576 147.026Z"
        fill="#364A91" />
    <path
        d="M618.5 12L626.898 18.5087L637.081 15.6742L642.33 24.9123L652.828 26.1721L654.088 36.6699L663.326 41.9188L660.491 52.1017L667 60.5L660.491 68.8983L663.326 79.0812L654.088 84.3301L652.828 94.8279L642.33 96.0877L637.081 105.326L626.898 102.491L618.5 109L610.102 102.491L599.919 105.326L594.67 96.0877L584.172 94.8279L582.912 84.3301L573.674 79.0812L576.509 68.8983L570 60.5L576.509 52.1017L573.674 41.9188L582.912 36.6699L584.172 26.1721L594.67 24.9123L599.919 15.6742L610.102 18.5087L618.5 12Z"
        fill="#35756B" />
    <path
        d="M626.306 22.1055L631.896 28.6452L640.44 28.0123L643.077 36.1342L651.199 38.8767L650.566 47.4205L657 53.011L653.097 60.6055L656.895 68.3055L650.355 73.8959L650.988 82.4397L642.866 85.0767L640.123 93.1986L631.579 92.5658L625.989 99L618.395 95.0973L610.695 98.8945L605.104 92.3548L596.56 92.9877L593.923 84.8658L585.801 82.1233L586.434 73.5795L580 67.989L583.903 60.3945L580.106 52.6945L586.645 47.1041L586.012 38.5603L594.134 35.9233L596.877 27.8014L605.421 28.4342L611.011 22L618.606 25.9027L626.306 22.1055Z"
        fill="#1E453F" />
    <path
        d="M616.444 63.9524H606.852V68.0952H616.444V75H600V57.0476H609.593V52.9048H600V46H616.444V63.9524Z"
        fill="white" />
    <path
        d="M623.981 60.5L617.815 46H624.667L627.407 52.449L630.148 46H637L630.833 60.5L637 75H630.148L627.407 68.551L624.667 75H617.815L623.981 60.5Z"
        fill="white" />
    <path
        d="M560.367 31.242C556.566 22.8576 539.461 4.79124 542.862 1.09812C546.363 -2.59499 566.369 3.0944 575.371 20.8613C575.471 20.8613 564.368 39.5265 560.367 31.242Z"
        fill="#283D77" />
    <path
        d="M545.562 48.6096C539.46 41.7224 517.554 29.4453 519.954 24.8538C522.155 20.3622 543.161 19.963 556.865 34.3362C556.765 34.3362 551.664 55.4967 545.562 48.6096Z"
        fill="#283D77" />
    <path
        d="M391.017 34.0367C478.843 -8.28446 515.954 34.935 515.954 34.935C515.954 34.935 527.857 37.1309 553.165 23.8556C578.272 10.6802 599.379 10.8798 602.379 14.0739C610.182 22.7577 600.579 27.0497 584.374 36.1328C568.169 45.2158 523.756 80.1507 523.756 80.1507C532.059 91.829 546.663 114.088 546.663 114.088C568.569 111.892 590.076 127.562 590.076 127.562C590.076 127.562 612.282 116.882 634.789 100.712C657.496 84.4427 673 98.2171 673 98.2171C656.696 104.805 607.181 161 607.181 161C589.776 153.514 528.658 153.015 528.658 153.015C510.252 142.634 485.445 112.79 402.62 103.407L391.017 34.0367Z"
        fill="#586EBC" />
    <path
        d="M600.379 22.059L588.075 30.8427L583.174 23.4564C594.577 14.9723 600.379 22.059 600.379 22.059Z"
        fill="white" />
    <path d="M371.91 112.091L373.711 29.5449L395.317 26.4507L406.62 115.185L371.91 112.091Z"
        fill="#364A91" />
    <path
        d="M389.216 106.202C391.923 106.202 394.117 104.012 394.117 101.311C394.117 98.6101 391.923 96.4204 389.216 96.4204C386.509 96.4204 384.314 98.6101 384.314 101.311C384.314 104.012 386.509 106.202 389.216 106.202Z"
        fill="#586EBC" />

</svg>