<svg width="673" height="161" viewBox="0 0 673 161" fill="none" xmlns="http://www.w3.org/2000/svg">
    <path d="M299.289 123.493L290.887 112.919V28.2298L299.289 22.7434V123.493Z" fill="#283D77" />
    <defs>
        <linearGradient id="paint0_linear_65_272" x1="301.264" y1="121.016" x2="582.465"
            y2="47.7736" gradientUnits="userSpaceOnUse">
            <stop offset="0.2011" stop-color="#586EBC" />
            <stop offset="1" stop-color="#586EBC" stop-opacity="0" />
        </linearGradient>
    </defs>
    <path d="M673 22.7434H299.289V123.493H673V22.7434Z" fill="url(#paint0_linear_65_272)" />
    <path
        d="M154.246 83.4924C154.246 83.4924 134.74 79.8015 120.336 85.7867L133.64 49.3771L114.835 46.3846L95.929 68.5295L106.532 39.4019L75.3228 23.3418L59.6182 86.4849L61.4187 120.101C61.4187 120.101 101.231 135.264 105.832 136.162C110.433 137.259 154.746 111.622 154.746 111.622L154.246 83.4924Z"
        fill="#283D77" />
    <path
        d="M47.1145 116.909L12.2041 65.2378C12.2041 65.2378 77.5235 101.548 85.6259 111.423C85.6259 111.423 108.733 94.6647 122.037 93.8667C122.037 93.8667 145.144 73.0185 161.649 76.7093C178.153 80.4001 138.442 140.052 138.442 140.052L80.5244 146.935L47.1145 116.909Z"
        fill="#364A91" />
    <path
        d="M97.5293 20.8481C106.532 3.09222 126.538 -2.69341 130.039 1.09717C133.54 4.788 116.335 22.8431 112.534 31.2223C108.633 39.5018 97.5293 20.8481 97.5293 20.8481Z"
        fill="#283D77" />
    <path
        d="M50 109C75.4051 109 96 88.4051 96 63C96 37.5949 75.4051 17 50 17C24.5949 17 4 37.5949 4 63C4 88.4051 24.5949 109 50 109Z"
        fill="#283D77" />
    <path
        d="M46 106C71.4051 106 92 85.629 92 60.5C92 35.371 71.4051 15 46 15C20.5949 15 0 35.371 0 60.5C0 85.629 20.5949 106 46 106Z"
        fill="#364A91" />
    <path
        d="M46 98C66.9868 98 84 81.2107 84 60.5C84 39.7893 66.9868 23 46 23C25.0132 23 8 39.7893 8 60.5C8 81.2107 25.0132 98 46 98Z"
        fill="#586EBC" />
    <path
        d="M59 43V77H33.0728V69.854H51.4986V50.2212H33.0728V43.0752L59 43ZM45.3081 56.3894V63.5354H33V56.3894C33.0728 56.3894 45.3081 56.3894 45.3081 56.3894Z"
        fill="white" />
    <path
        d="M116.234 34.3147C129.938 19.9504 150.945 20.3494 153.145 24.8382C155.446 29.4268 133.64 41.6963 127.538 48.5792C121.336 55.4621 116.234 34.3147 116.234 34.3147Z"
        fill="#283D77" />
    <path
        d="M270.38 103.443C187.556 112.82 162.748 142.645 144.343 153.02C144.343 153.02 83.1247 153.419 65.8196 161C65.8196 161 16.4049 104.839 0 98.2558C0 98.2558 15.5046 84.49 38.2114 100.75C60.718 116.909 82.9247 127.583 82.9247 127.583C82.9247 127.583 104.431 111.822 126.338 114.116C126.338 114.116 140.942 91.8716 149.244 80.2006C149.244 80.2006 104.831 45.2874 88.6263 36.2099C72.4215 27.1325 62.7186 22.8431 70.621 14.1647C73.6219 10.8729 94.7282 10.7731 119.836 23.9404C145.143 37.2074 157.047 35.0129 157.047 35.0129C157.047 35.0129 194.258 -8.1798 281.984 34.1151L270.38 103.443Z"
        fill="#586EBC" />
    <path
        d="M89.7266 23.4417L84.8251 30.8233L72.5215 22.0451C72.6215 22.0451 78.4232 14.9627 89.7266 23.4417Z"
        fill="white" />
    <path d="M266.379 115.014L277.682 26.3345L299.289 29.4268L301.089 111.922L266.379 115.014Z"
        fill="#364A91" />
    <path
        d="M283.784 106.136C286.491 106.136 288.686 103.948 288.686 101.248C288.686 98.549 286.491 96.3606 283.784 96.3606C281.077 96.3606 278.883 98.549 278.883 101.248C278.883 103.948 281.077 106.136 283.784 106.136Z"
        fill="#586EBC" />

</svg>